<svg width="232" height="50" viewBox="0 0 232 50" fill="none" xmlns="http://www.w3.org/2000/svg">
<circle cx="25" cy="25" r="20" fill="#1B1B81"/>
<path d="M25 3.125C20.6735 3.125 16.4442 4.40795 12.8469 6.8116C9.24959 9.21526 6.44581 12.6317 4.79014 16.6288C3.13448 20.6259 2.70128 25.0243 3.54533 29.2676C4.38938 33.5109 6.47277 37.4087 9.53205 40.468C12.5913 43.5272 16.4891 45.6106 20.7324 46.4547C24.9757 47.2987 29.3741 46.8655 33.3712 45.2099C37.3683 43.5542 40.7848 40.7504 43.1884 37.1531C45.5921 33.5558 46.875 29.3265 46.875 25C46.8684 19.2004 44.5616 13.6403 40.4607 9.53935C36.3597 5.43842 30.7996 3.13162 25 3.125ZM6.28126 25.6156L8.37188 26.3125L10.9375 30.1609V32.1656C10.9376 32.58 11.1023 32.9774 11.3953 33.2703L15.625 37.5V41.2141C12.8723 39.6201 10.5704 37.352 8.9358 34.6233C7.30122 31.8945 6.38772 28.7947 6.28126 25.6156ZM25 43.75C23.6483 43.7469 22.3009 43.5975 20.9813 43.3047L21.875 40.625L24.6953 33.575C24.7893 33.3396 24.8246 33.0849 24.7982 32.8328C24.7718 32.5808 24.6845 32.3389 24.5438 32.1281L22.3391 28.8203C22.1963 28.6064 22.003 28.431 21.7762 28.3097C21.5495 28.1884 21.2962 28.125 21.0391 28.125H13.3359L11.3859 25.1984L14.7094 21.875H17.1875V25H20.3125V20.7281L26.3563 10.15L23.6438 8.6L22.3078 10.9375H18.0234L16.3281 8.39219C18.606 7.19006 21.1093 6.47596 23.6786 6.29544C26.2478 6.11492 28.8265 6.47195 31.25 7.34375V12.5C31.25 12.9144 31.4146 13.3118 31.7077 13.6049C32.0007 13.8979 32.3981 14.0625 32.8125 14.0625H35.1016C35.3587 14.0625 35.612 13.9991 35.8387 13.8778C36.0655 13.7565 36.2588 13.5811 36.4016 13.3672L37.7719 11.3109C39.5575 12.9745 41.0012 14.9707 42.0219 17.1875H35.6563C35.2952 17.1877 34.9453 17.313 34.6662 17.542C34.387 17.771 34.1958 18.0897 34.125 18.4437L32.9953 25.4281C32.9419 25.757 32.9949 26.0943 33.1467 26.3908C33.2985 26.6874 33.5411 26.9276 33.8391 27.0766L39.0625 29.6875L40.1328 36.025C38.3985 38.415 36.1234 40.3608 33.4934 41.7033C30.8633 43.0459 27.9529 43.7473 25 43.75Z" fill="#CBFFC0"/>
<path d="M78.752 13.6H82.912V36H78.752V13.6ZM67.168 36H63.008V13.6H67.168V36ZM79.072 26.4H66.816V22.848H79.072V26.4ZM99.0583 36V32.544L98.8343 31.808V25.76C98.8343 24.5867 98.4823 23.68 97.7783 23.04C97.0743 22.3787 96.0076 22.048 94.5783 22.048C93.6183 22.048 92.6689 22.1973 91.7303 22.496C90.8129 22.7947 90.0343 23.2107 89.3943 23.744L87.8263 20.832C88.7436 20.128 89.8316 19.6053 91.0903 19.264C92.3703 18.9013 93.6929 18.72 95.0583 18.72C97.5329 18.72 99.4423 19.3173 100.786 20.512C102.152 21.6853 102.834 23.5093 102.834 25.984V36H99.0583ZM93.6823 36.224C92.4023 36.224 91.2823 36.0107 90.3223 35.584C89.3623 35.136 88.6156 34.528 88.0823 33.76C87.5703 32.9707 87.3143 32.0853 87.3143 31.104C87.3143 30.144 87.5383 29.28 87.9863 28.512C88.4556 27.744 89.2129 27.136 90.2583 26.688C91.3036 26.24 92.6903 26.016 94.4183 26.016H99.3783V28.672H94.7063C93.3409 28.672 92.4236 28.896 91.9543 29.344C91.4849 29.7707 91.2503 30.304 91.2503 30.944C91.2503 31.6693 91.5383 32.2453 92.1143 32.672C92.6903 33.0987 93.4903 33.312 94.5143 33.312C95.4956 33.312 96.3703 33.088 97.1383 32.64C97.9276 32.192 98.4929 31.5307 98.8343 30.656L99.5063 33.056C99.1223 34.0587 98.4289 34.8373 97.4263 35.392C96.4449 35.9467 95.1969 36.224 93.6823 36.224ZM117.44 36.224C115.989 36.224 114.698 35.904 113.568 35.264C112.437 34.624 111.541 33.664 110.88 32.384C110.24 31.0827 109.92 29.44 109.92 27.456C109.92 25.4507 110.25 23.808 110.912 22.528C111.594 21.248 112.501 20.2987 113.632 19.68C114.784 19.04 116.053 18.72 117.44 18.72C119.125 18.72 120.608 19.0827 121.888 19.808C123.189 20.5333 124.213 21.5467 124.96 22.848C125.728 24.1493 126.112 25.6853 126.112 27.456C126.112 29.2267 125.728 30.7627 124.96 32.064C124.213 33.3653 123.189 34.3893 121.888 35.136C120.608 35.8613 119.125 36.224 117.44 36.224ZM107.968 36V12.256H111.968V22.88L111.648 27.424L111.776 31.968V36H107.968ZM116.992 32.8C117.952 32.8 118.805 32.5867 119.552 32.16C120.32 31.7333 120.928 31.1147 121.376 30.304C121.824 29.4933 122.048 28.544 122.048 27.456C122.048 26.3467 121.824 25.3973 121.376 24.608C120.928 23.7973 120.32 23.1787 119.552 22.752C118.805 22.3253 117.952 22.112 116.992 22.112C116.032 22.112 115.168 22.3253 114.4 22.752C113.632 23.1787 113.024 23.7973 112.576 24.608C112.128 25.3973 111.904 26.3467 111.904 27.456C111.904 28.544 112.128 29.4933 112.576 30.304C113.024 31.1147 113.632 31.7333 114.4 32.16C115.168 32.5867 116.032 32.8 116.992 32.8ZM129.905 36V18.912H133.905V36H129.905ZM131.921 16.096C131.175 16.096 130.556 15.8613 130.065 15.392C129.596 14.9227 129.361 14.3573 129.361 13.696C129.361 13.0133 129.596 12.448 130.065 12C130.556 11.5307 131.175 11.296 131.921 11.296C132.668 11.296 133.276 11.52 133.745 11.968C134.236 12.3947 134.481 12.9387 134.481 13.6C134.481 14.304 134.247 14.9013 133.777 15.392C133.308 15.8613 132.689 16.096 131.921 16.096ZM145.587 36.224C143.71 36.224 142.259 35.744 141.235 34.784C140.211 33.8027 139.699 32.3627 139.699 30.464V15.136H143.699V30.368C143.699 31.1787 143.902 31.808 144.307 32.256C144.734 32.704 145.321 32.928 146.067 32.928C146.963 32.928 147.71 32.6933 148.307 32.224L149.427 35.072C148.958 35.456 148.382 35.744 147.699 35.936C147.017 36.128 146.313 36.224 145.587 36.224ZM136.883 22.24V19.04H148.275V22.24H136.883ZM163.246 36V32.544L163.022 31.808V25.76C163.022 24.5867 162.67 23.68 161.966 23.04C161.262 22.3787 160.195 22.048 158.766 22.048C157.806 22.048 156.856 22.1973 155.918 22.496C155 22.7947 154.222 23.2107 153.582 23.744L152.014 20.832C152.931 20.128 154.019 19.6053 155.278 19.264C156.558 18.9013 157.88 18.72 159.246 18.72C161.72 18.72 163.63 19.3173 164.974 20.512C166.339 21.6853 167.022 23.5093 167.022 25.984V36H163.246ZM157.87 36.224C156.59 36.224 155.47 36.0107 154.51 35.584C153.55 35.136 152.803 34.528 152.27 33.76C151.758 32.9707 151.502 32.0853 151.502 31.104C151.502 30.144 151.726 29.28 152.174 28.512C152.643 27.744 153.4 27.136 154.446 26.688C155.491 26.24 156.878 26.016 158.606 26.016H163.566V28.672H158.894C157.528 28.672 156.611 28.896 156.142 29.344C155.672 29.7707 155.438 30.304 155.438 30.944C155.438 31.6693 155.726 32.2453 156.302 32.672C156.878 33.0987 157.678 33.312 158.702 33.312C159.683 33.312 160.558 33.088 161.326 32.64C162.115 32.192 162.68 31.5307 163.022 30.656L163.694 33.056C163.31 34.0587 162.616 34.8373 161.614 35.392C160.632 35.9467 159.384 36.224 157.87 36.224ZM178.587 36.224C176.71 36.224 175.259 35.744 174.235 34.784C173.211 33.8027 172.699 32.3627 172.699 30.464V15.136H176.699V30.368C176.699 31.1787 176.902 31.808 177.307 32.256C177.734 32.704 178.321 32.928 179.067 32.928C179.963 32.928 180.71 32.6933 181.307 32.224L182.427 35.072C181.958 35.456 181.382 35.744 180.699 35.936C180.017 36.128 179.313 36.224 178.587 36.224ZM169.883 22.24V19.04H181.275V22.24H169.883Z" fill="white"/>
<path d="M185.334 36V13.6H196.79C199.734 13.6 201.931 14.144 203.382 15.232C204.832 16.2987 205.558 17.7067 205.558 19.456C205.558 20.608 205.248 21.6213 204.63 22.496C204.032 23.3493 203.179 24.032 202.07 24.544C200.982 25.0347 199.68 25.28 198.166 25.28L198.806 23.744C200.384 23.744 201.76 23.9893 202.934 24.48C204.107 24.9493 205.014 25.6427 205.654 26.56C206.315 27.456 206.646 28.5547 206.646 29.856C206.646 31.7973 205.856 33.312 204.278 34.4C202.72 35.4667 200.438 36 197.43 36H185.334ZM191.606 31.424H196.918C198.006 31.424 198.827 31.2427 199.382 30.88C199.958 30.496 200.246 29.92 200.246 29.152C200.246 28.384 199.958 27.8187 199.382 27.456C198.827 27.072 198.006 26.88 196.918 26.88H191.158V22.496H195.958C197.024 22.496 197.824 22.3147 198.358 21.952C198.891 21.5893 199.158 21.0453 199.158 20.32C199.158 19.5947 198.891 19.0613 198.358 18.72C197.824 18.3573 197.024 18.176 195.958 18.176H191.606V31.424ZM209.928 36V13.6H220.168C222.216 13.6 223.976 13.9307 225.448 14.592C226.941 15.2533 228.093 16.2133 228.904 17.472C229.714 18.7093 230.12 20.1813 230.12 21.888C230.12 23.5733 229.714 25.0347 228.904 26.272C228.093 27.488 226.941 28.4267 225.448 29.088C223.976 29.728 222.216 30.048 220.168 30.048H213.448L216.264 27.392V36H209.928ZM223.784 36L218.216 27.84H224.968L230.568 36H223.784ZM216.264 28.064L213.448 25.152H219.784C221.106 25.152 222.088 24.864 222.728 24.288C223.389 23.712 223.72 22.912 223.72 21.888C223.72 20.8427 223.389 20.032 222.728 19.456C222.088 18.88 221.106 18.592 219.784 18.592H213.448L216.264 15.68V28.064Z" fill="#CBFFC0"/>
</svg>
