<svg width="158" height="40" viewBox="0 0 158 40" fill="none" xmlns="http://www.w3.org/2000/svg">
<circle cx="20" cy="20" r="16" fill="#1B1B81"/>
<path d="M20 2.5C16.5388 2.5 13.1554 3.52636 10.2775 5.44928C7.39967 7.37221 5.15665 10.1053 3.83212 13.303C2.50758 16.5007 2.16102 20.0194 2.83627 23.4141C3.51151 26.8087 5.17822 29.9269 7.62564 32.3744C10.0731 34.8218 13.1913 36.4885 16.5859 37.1637C19.9806 37.839 23.4993 37.4924 26.697 36.1679C29.8947 34.8434 32.6278 32.6003 34.5507 29.7225C36.4737 26.8446 37.5 23.4612 37.5 20C37.4947 15.3603 35.6493 10.9122 32.3685 7.63148C29.0878 4.35074 24.6397 2.50529 20 2.5ZM5.02501 20.4925L6.69751 21.05L8.75001 24.1287V25.7325C8.75008 26.064 8.88182 26.3819 9.11626 26.6162L12.5 30V32.9713C10.2979 31.6961 8.45631 29.8816 7.14864 27.6986C5.84097 25.5156 5.11018 23.0358 5.02501 20.4925ZM20 35C18.9186 34.9975 17.8407 34.878 16.785 34.6437L17.5 32.5L19.7563 26.86C19.8314 26.6717 19.8597 26.4679 19.8386 26.2663C19.8174 26.0646 19.7476 25.8711 19.635 25.7025L17.8713 23.0562C17.7571 22.8851 17.6024 22.7448 17.421 22.6478C17.2396 22.5507 17.037 22.5 16.8313 22.5H10.6688L9.10876 20.1588L11.7675 17.5H13.75V20H16.25V16.5825L21.085 8.12L18.915 6.88L17.8463 8.75H14.4188L13.0625 6.71375C14.8848 5.75205 16.8875 5.18077 18.9429 5.03635C20.9983 4.89194 23.0612 5.17756 25 5.875V10C25 10.3315 25.1317 10.6495 25.3661 10.8839C25.6005 11.1183 25.9185 11.25 26.25 11.25H28.0813C28.287 11.25 28.4896 11.1993 28.671 11.1022C28.8524 11.0052 29.0071 10.8649 29.1213 10.6938L30.2175 9.04875C31.646 10.3796 32.8009 11.9766 33.6175 13.75H28.525C28.2361 13.7502 27.9563 13.8504 27.7329 14.0336C27.5096 14.2168 27.3566 14.4717 27.3 14.755L26.3963 20.3425C26.3535 20.6056 26.3959 20.8754 26.5173 21.1126C26.6388 21.3499 26.8329 21.5421 27.0713 21.6613L31.25 23.75L32.1063 28.82C30.7188 30.732 28.8987 32.2886 26.7947 33.3627C24.6906 34.4367 22.3623 34.9978 20 35Z" fill="#CBFFC0"/>
<path d="M61.72 13H64.32V27H61.72V13ZM54.48 27H51.88V13H54.48V27ZM61.92 21H54.26V18.78H61.92V21ZM74.4114 27V24.84L74.2714 24.38V20.6C74.2714 19.8667 74.0514 19.3 73.6114 18.9C73.1714 18.4867 72.5047 18.28 71.6114 18.28C71.0114 18.28 70.4181 18.3733 69.8314 18.56C69.2581 18.7467 68.7714 19.0067 68.3714 19.34L67.3914 17.52C67.9647 17.08 68.6447 16.7533 69.4314 16.54C70.2314 16.3133 71.0581 16.2 71.9114 16.2C73.4581 16.2 74.6514 16.5733 75.4914 17.32C76.3447 18.0533 76.7714 19.1933 76.7714 20.74V27H74.4114ZM71.0514 27.14C70.2514 27.14 69.5514 27.0067 68.9514 26.74C68.3514 26.46 67.8847 26.08 67.5514 25.6C67.2314 25.1067 67.0714 24.5533 67.0714 23.94C67.0714 23.34 67.2114 22.8 67.4914 22.32C67.7847 21.84 68.2581 21.46 68.9114 21.18C69.5647 20.9 70.4314 20.76 71.5114 20.76H74.6114V22.42H71.6914C70.8381 22.42 70.2647 22.56 69.9714 22.84C69.6781 23.1067 69.5314 23.44 69.5314 23.84C69.5314 24.2933 69.7114 24.6533 70.0714 24.92C70.4314 25.1867 70.9314 25.32 71.5714 25.32C72.1847 25.32 72.7314 25.18 73.2114 24.9C73.7047 24.62 74.0581 24.2067 74.2714 23.66L74.6914 25.16C74.4514 25.7867 74.0181 26.2733 73.3914 26.62C72.7781 26.9667 71.9981 27.14 71.0514 27.14ZM85.8998 27.14C84.9932 27.14 84.1865 26.94 83.4798 26.54C82.7732 26.14 82.2132 25.54 81.7998 24.74C81.3998 23.9267 81.1998 22.9 81.1998 21.66C81.1998 20.4067 81.4065 19.38 81.8198 18.58C82.2465 17.78 82.8132 17.1867 83.5198 16.8C84.2398 16.4 85.0332 16.2 85.8998 16.2C86.9532 16.2 87.8798 16.4267 88.6798 16.88C89.4932 17.3333 90.1332 17.9667 90.5998 18.78C91.0798 19.5933 91.3198 20.5533 91.3198 21.66C91.3198 22.7667 91.0798 23.7267 90.5998 24.54C90.1332 25.3533 89.4932 25.9933 88.6798 26.46C87.8798 26.9133 86.9532 27.14 85.8998 27.14ZM79.9798 27V12.16H82.4798V18.8L82.2798 21.64L82.3598 24.48V27H79.9798ZM85.6198 25C86.2198 25 86.7532 24.8667 87.2198 24.6C87.6998 24.3333 88.0798 23.9467 88.3598 23.44C88.6398 22.9333 88.7798 22.34 88.7798 21.66C88.7798 20.9667 88.6398 20.3733 88.3598 19.88C88.0798 19.3733 87.6998 18.9867 87.2198 18.72C86.7532 18.4533 86.2198 18.32 85.6198 18.32C85.0198 18.32 84.4798 18.4533 83.9998 18.72C83.5198 18.9867 83.1398 19.3733 82.8598 19.88C82.5798 20.3733 82.4398 20.9667 82.4398 21.66C82.4398 22.34 82.5798 22.9333 82.8598 23.44C83.1398 23.9467 83.5198 24.3333 83.9998 24.6C84.4798 24.8667 85.0198 25 85.6198 25ZM93.6908 27V16.32H96.1908V27H93.6908ZM94.9508 14.56C94.4841 14.56 94.0974 14.4133 93.7908 14.12C93.4974 13.8267 93.3508 13.4733 93.3508 13.06C93.3508 12.6333 93.4974 12.28 93.7908 12C94.0974 11.7067 94.4841 11.56 94.9508 11.56C95.4174 11.56 95.7974 11.7 96.0908 11.98C96.3974 12.2467 96.5508 12.5867 96.5508 13C96.5508 13.44 96.4041 13.8133 96.1108 14.12C95.8174 14.4133 95.4308 14.56 94.9508 14.56ZM103.492 27.14C102.319 27.14 101.412 26.84 100.772 26.24C100.132 25.6267 99.812 24.7267 99.812 23.54V13.96H102.312V23.48C102.312 23.9867 102.439 24.38 102.692 24.66C102.959 24.94 103.325 25.08 103.792 25.08C104.352 25.08 104.819 24.9333 105.192 24.64L105.892 26.42C105.599 26.66 105.239 26.84 104.812 26.96C104.385 27.08 103.945 27.14 103.492 27.14ZM98.052 18.4V16.4H105.172V18.4H98.052ZM114.529 27V24.84L114.389 24.38V20.6C114.389 19.8667 114.169 19.3 113.729 18.9C113.289 18.4867 112.622 18.28 111.729 18.28C111.129 18.28 110.535 18.3733 109.949 18.56C109.375 18.7467 108.889 19.0067 108.489 19.34L107.509 17.52C108.082 17.08 108.762 16.7533 109.549 16.54C110.349 16.3133 111.175 16.2 112.029 16.2C113.575 16.2 114.769 16.5733 115.609 17.32C116.462 18.0533 116.889 19.1933 116.889 20.74V27H114.529ZM111.169 27.14C110.369 27.14 109.669 27.0067 109.069 26.74C108.469 26.46 108.002 26.08 107.669 25.6C107.349 25.1067 107.189 24.5533 107.189 23.94C107.189 23.34 107.329 22.8 107.609 22.32C107.902 21.84 108.375 21.46 109.029 21.18C109.682 20.9 110.549 20.76 111.629 20.76H114.729V22.42H111.809C110.955 22.42 110.382 22.56 110.089 22.84C109.795 23.1067 109.649 23.44 109.649 23.84C109.649 24.2933 109.829 24.6533 110.189 24.92C110.549 25.1867 111.049 25.32 111.689 25.32C112.302 25.32 112.849 25.18 113.329 24.9C113.822 24.62 114.175 24.2067 114.389 23.66L114.809 25.16C114.569 25.7867 114.135 26.2733 113.509 26.62C112.895 26.9667 112.115 27.14 111.169 27.14ZM124.117 27.14C122.944 27.14 122.037 26.84 121.397 26.24C120.757 25.6267 120.437 24.7267 120.437 23.54V13.96H122.937V23.48C122.937 23.9867 123.064 24.38 123.317 24.66C123.584 24.94 123.95 25.08 124.417 25.08C124.977 25.08 125.444 24.9333 125.817 24.64L126.517 26.42C126.224 26.66 125.864 26.84 125.437 26.96C125.01 27.08 124.57 27.14 124.117 27.14ZM118.677 18.4V16.4H125.797V18.4H118.677Z" fill="white"/>
<path d="M128.334 27V13H135.494C137.334 13 138.707 13.34 139.614 14.02C140.52 14.6867 140.974 15.5667 140.974 16.66C140.974 17.38 140.78 18.0133 140.394 18.56C140.02 19.0933 139.487 19.52 138.794 19.84C138.114 20.1467 137.3 20.3 136.354 20.3L136.754 19.34C137.74 19.34 138.6 19.4933 139.334 19.8C140.067 20.0933 140.634 20.5267 141.034 21.1C141.447 21.66 141.654 22.3467 141.654 23.16C141.654 24.3733 141.16 25.32 140.174 26C139.2 26.6667 137.774 27 135.894 27H128.334ZM132.254 24.14H135.574C136.254 24.14 136.767 24.0267 137.114 23.8C137.474 23.56 137.654 23.2 137.654 22.72C137.654 22.24 137.474 21.8867 137.114 21.66C136.767 21.42 136.254 21.3 135.574 21.3H131.974V18.56H134.974C135.64 18.56 136.14 18.4467 136.474 18.22C136.807 17.9933 136.974 17.6533 136.974 17.2C136.974 16.7467 136.807 16.4133 136.474 16.2C136.14 15.9733 135.64 15.86 134.974 15.86H132.254V24.14ZM143.705 27V13H150.105C151.385 13 152.485 13.2067 153.405 13.62C154.338 14.0333 155.058 14.6333 155.565 15.42C156.071 16.1933 156.325 17.1133 156.325 18.18C156.325 19.2333 156.071 20.1467 155.565 20.92C155.058 21.68 154.338 22.2667 153.405 22.68C152.485 23.08 151.385 23.28 150.105 23.28H145.905L147.665 21.62V27H143.705ZM152.365 27L148.885 21.9H153.105L156.605 27H152.365ZM147.665 22.04L145.905 20.22H149.865C150.691 20.22 151.305 20.04 151.705 19.68C152.118 19.32 152.325 18.82 152.325 18.18C152.325 17.5267 152.118 17.02 151.705 16.66C151.305 16.3 150.691 16.12 149.865 16.12H145.905L147.665 14.3V22.04Z" fill="#CBFFC0"/>
</svg>
