<svg width="40" height="40" viewBox="0 0 40 40" fill="none" xmlns="http://www.w3.org/2000/svg">
<circle cx="20" cy="20" r="16" fill="#1B1B81"/>
<path d="M20 2.5C16.5388 2.5 13.1554 3.52636 10.2775 5.44928C7.39967 7.37221 5.15665 10.1053 3.83212 13.303C2.50758 16.5007 2.16102 20.0194 2.83627 23.4141C3.51151 26.8087 5.17822 29.9269 7.62564 32.3744C10.0731 34.8218 13.1913 36.4885 16.5859 37.1637C19.9806 37.839 23.4993 37.4924 26.697 36.1679C29.8947 34.8434 32.6278 32.6003 34.5507 29.7225C36.4737 26.8446 37.5 23.4612 37.5 20C37.4947 15.3603 35.6493 10.9122 32.3685 7.63148C29.0878 4.35074 24.6397 2.50529 20 2.5ZM5.02501 20.4925L6.69751 21.05L8.75001 24.1287V25.7325C8.75008 26.064 8.88182 26.3819 9.11626 26.6162L12.5 30V32.9713C10.2979 31.6961 8.45631 29.8816 7.14864 27.6986C5.84097 25.5156 5.11018 23.0358 5.02501 20.4925ZM20 35C18.9186 34.9975 17.8407 34.878 16.785 34.6438L17.5 32.5L19.7563 26.86C19.8314 26.6717 19.8597 26.4679 19.8386 26.2663C19.8174 26.0646 19.7476 25.8711 19.635 25.7025L17.8713 23.0562C17.7571 22.8851 17.6024 22.7448 17.421 22.6478C17.2396 22.5507 17.037 22.5 16.8313 22.5H10.6688L9.10876 20.1588L11.7675 17.5H13.75V20H16.25V16.5825L21.085 8.12L18.915 6.88L17.8463 8.75H14.4188L13.0625 6.71375C14.8848 5.75205 16.8875 5.18077 18.9429 5.03635C20.9983 4.89194 23.0612 5.17756 25 5.875V10C25 10.3315 25.1317 10.6495 25.3661 10.8839C25.6005 11.1183 25.9185 11.25 26.25 11.25H28.0813C28.287 11.25 28.4896 11.1993 28.671 11.1022C28.8524 11.0052 29.0071 10.8649 29.1213 10.6938L30.2175 9.04875C31.646 10.3796 32.8009 11.9766 33.6175 13.75H28.525C28.2361 13.7502 27.9563 13.8504 27.7329 14.0336C27.5096 14.2168 27.3566 14.4717 27.3 14.755L26.3963 20.3425C26.3535 20.6056 26.3959 20.8754 26.5173 21.1126C26.6388 21.3499 26.8329 21.5421 27.0713 21.6613L31.25 23.75L32.1063 28.82C30.7188 30.732 28.8987 32.2886 26.7947 33.3627C24.6906 34.4367 22.3623 34.9978 20 35Z" fill="#CBFFC0"/>
</svg>
